<svg
    xmlns="http://www.w3.org/2000/svg"
    width="235"
    height="230"
    viewBox="0 0 235 230"
    fill="none"
  >
    <path
      d="M234.667 64V124.587C234.68 126.179 234.315 127.751 233.6 129.173C233.194 130.067 232.654 130.895 232 131.627C231.313 132.375 230.523 133.022 229.653 133.547C228.887 134.01 228.062 134.369 227.2 134.613C226.283 134.775 225.344 134.775 224.427 134.613C222.835 134.627 221.263 134.261 219.84 133.547C210.02 128.802 199.151 126.645 188.263 127.281C177.376 127.916 166.831 131.324 157.631 137.18C148.43 143.036 140.878 151.146 135.693 160.74C130.507 170.334 127.859 181.095 128 192C128 194.829 126.876 197.542 124.876 199.542C122.875 201.543 120.162 202.667 117.333 202.667H32C23.5131 202.667 15.3737 199.295 9.37258 193.294C3.37142 187.293 0 179.154 0 170.667V32C0 23.5131 3.37142 15.3737 9.37258 9.37258C15.3737 3.37142 23.5131 0 32 0H84.5867C89.8103 0.00954398 94.9522 1.29772 99.5634 3.75205C104.175 6.20638 108.115 9.75223 111.04 14.08L120 27.3067C120.968 28.7394 122.27 29.9152 123.794 30.7328C125.318 31.5504 127.018 31.9853 128.747 32H202.667C211.154 32 219.293 35.3714 225.294 41.3726C231.295 47.3737 234.667 55.5131 234.667 64ZM224 186.667H192V176C192.012 173.894 191.401 171.832 190.243 170.073C189.085 168.314 187.433 166.937 185.493 166.115C183.554 165.294 181.415 165.065 179.346 165.457C177.277 165.85 175.371 166.846 173.867 168.32L152.533 189.013C150.524 190.983 149.373 193.666 149.333 196.48C149.289 199.3 150.362 202.023 152.32 204.053L173.653 226.133C175.133 227.668 177.038 228.725 179.124 229.166C181.21 229.608 183.38 229.415 185.354 228.611C187.329 227.807 189.018 226.43 190.202 224.658C191.387 222.885 192.013 220.799 192 218.667V208H224C226.829 208 229.542 206.876 231.542 204.876C233.543 202.875 234.667 200.162 234.667 197.333C234.667 194.504 233.543 191.791 231.542 189.791C229.542 187.79 226.829 186.667 224 186.667Z"
      fill="#605E5F"
    />
  </svg>